<?xml version="1.0" encoding="UTF-8" standalone="no"?>
<svg width="130" height="130" xmlns="http://www.w3.org/2000/svg">
<!--    <path d="M0,0 l130,0" style="stroke:red"/>-->
<!--    <path d="M0,130 l130,0" style="stroke:red"/>-->
<!--    <path d="M0,0 l0,130" style="stroke:red"/>-->
<!--    <path d="M130,0 l0,130" style="stroke:red"/>-->
    <path d="
            M15,30
            l0,60
            a30,30,0,0,0,30,30
            l40,0
            a30,30,0,0,0,30,-30
            l0,-20
            a15,15,0,0,0,-15,-15
            l-10,0
            a15,15,0,0,0,-15,15
            l0,10
            a10,10,0,0,1,-10,10
            a10,10,0,0,1,-10,-10
            l0,-50
            a20,20,0,0,0,-20,-20
            a20,20,0,0,0,-20,20
            z
            "
          style="fill:#4466ee;stroke-width:0" />

    <path d="
            M95,10
            a20,20,0,0,0,0,40
            a20,20,0,0,0,0,-40
            z
            M101,30
            l6,6
            a3,3,0,0,1,-6,6
            l-6,-6
            l-6,6
            a3,3,0,0,1,-6,-6
            l6,-6
            l-6,-6
            a3,3,0,0,1,6,-6
            l6,6
            l6,-6
            a3,3,0,0,1,6,6
            l-6,6
            z
            "
          style="fill:#4466ee;stroke-width:0" />
    
</svg>